<?xml version="1.0" standalone="no"?>
<!DOCTYPE svg PUBLIC "-//W3C//DTD SVG 20010904//EN"
 "http://www.w3.org/TR/2001/REC-SVG-20010904/DTD/svg10.dtd">
<svg version="1.0" xmlns="http://www.w3.org/2000/svg"
 width="539.000000pt" height="539.000000pt" viewBox="0 0 539.000000 539.000000"
 preserveAspectRatio="xMidYMid meet">
<g transform="translate(0.000000,539.000000) scale(0.100000,-0.100000)"
fill="#000000" stroke="none">
<path d="M0 5100 l0 -290 65 0 c58 0 67 3 95 30 26 26 38 30 84 30 30 0 98 12
152 26 55 15 134 35 176 44 43 10 94 27 113 39 24 14 44 19 64 15 23 -5 43 2
88 29 95 57 144 69 269 64 60 -3 123 -8 141 -12 25 -5 41 -2 68 15 22 13 46
20 60 17 14 -2 30 2 36 9 8 9 34 14 78 14 85 0 174 16 218 40 23 12 46 16 72
13 23 -3 41 -1 45 6 10 16 166 15 166 -1 0 -18 -37 -77 -69 -111 -28 -31 -91
-67 -115 -67 -9 0 -13 -6 -10 -14 4 -10 -10 -19 -48 -29 -29 -9 -96 -28 -148
-43 -116 -32 -134 -41 -102 -50 12 -3 22 -10 22 -14 0 -8 -182 -20 -310 -20
-77 0 -99 -11 -45 -22 17 -4 16 -6 -10 -18 -16 -8 -73 -38 -126 -67 -53 -29
-103 -53 -113 -53 -9 0 -69 50 -133 110 -114 108 -138 122 -172 101 -11 -7
-12 -15 -5 -29 11 -25 204 -192 221 -192 19 0 16 -14 -8 -36 -29 -26 -48 -65
-75 -154 -34 -108 -32 -152 9 -195 25 -27 37 -34 55 -29 22 6 22 7 5 26 -17
19 -13 19 231 16 l247 -3 -23 -20 c-13 -11 -35 -28 -48 -38 -20 -14 -16 -13
18 3 l42 20 0 -24 c0 -15 -17 -44 -40 -71 -22 -25 -40 -53 -40 -61 0 -9 -11
-14 -32 -14 -18 0 -50 -5 -70 -10 -39 -11 -87 -44 -77 -54 3 -4 41 -1 83 5 60
9 80 9 89 0 12 -13 1 -26 -53 -62 l-23 -15 23 -31 c18 -25 21 -38 16 -69 -6
-32 -5 -36 9 -30 36 13 65 18 65 10 0 -22 -41 -73 -74 -93 -20 -13 -36 -24
-36 -26 0 -3 25 5 55 17 31 11 58 18 62 14 4 -3 10 -35 14 -71 12 -94 45 -164
85 -181 19 -8 48 -14 66 -14 33 0 33 1 30 39 -4 35 2 45 60 112 l63 74 7 -50
c4 -28 11 -88 17 -135 9 -81 11 -86 47 -117 21 -17 39 -31 40 -30 2 2 -10 76
-21 127 -3 14 9 1 28 -32 39 -68 65 -98 84 -98 11 0 12 9 7 36 l-7 36 59 -46
c68 -53 96 -57 135 -20 30 28 62 27 74 -4 4 -9 9 -106 11 -215 4 -230 10 -253
96 -346 29 -31 96 -118 148 -194 52 -75 121 -174 153 -219 32 -46 85 -135 117
-199 64 -127 109 -177 180 -198 22 -6 40 -16 40 -20 0 -16 -50 -22 -93 -11
-76 20 -261 82 -299 101 -21 11 -56 19 -79 19 -39 0 -47 -5 -104 -65 -35 -36
-71 -65 -81 -65 -11 0 -48 5 -83 11 -44 7 -98 7 -173 0 -77 -7 -124 -7 -157 0
-68 15 -239 15 -284 0 -33 -11 -48 -11 -108 5 -61 16 -81 16 -182 6 -173 -18
-260 -16 -307 8 -49 25 -63 25 -136 0 -32 -12 -91 -27 -131 -35 -75 -14 -121
-33 -142 -59 -22 -26 -77 -30 -164 -11 -45 9 -98 24 -117 33 -19 8 -56 16 -82
17 l-48 2 0 -969 0 -968 1445 0 1444 0 21 48 c11 26 29 54 40 62 10 8 40 69
66 135 25 66 55 129 65 141 10 11 19 35 19 52 0 36 28 112 41 112 14 0 11 -12
-36 -146 -26 -73 -54 -178 -66 -243 -11 -64 -22 -126 -24 -138 l-5 -23 1190 0
1190 0 0 475 c0 453 -1 475 -19 484 -24 13 -31 5 -32 -38 -1 -20 -4 -47 -8
-61 -5 -19 -9 -7 -14 45 -5 58 -11 74 -32 92 -27 24 -55 30 -55 13 0 -5 -4
-10 -10 -10 -5 0 -10 16 -10 35 0 32 -2 35 -30 35 -35 0 -43 -14 -58 -100 -9
-54 -9 -54 -11 39 -1 75 -5 98 -18 114 -14 14 -18 37 -18 90 0 63 3 73 28 98
15 15 27 37 27 48 0 20 -34 51 -56 51 -7 0 -16 -45 -24 -120 -7 -67 -17 -123
-22 -126 -5 -4 -6 56 -2 144 6 130 5 153 -10 173 -9 13 -16 31 -16 41 0 34
-18 18 -25 -22 -4 -22 -11 -43 -16 -46 -6 -3 -7 40 -3 114 8 133 3 163 -27
191 -19 18 -20 21 -5 50 14 27 14 31 2 31 -8 0 -18 -5 -21 -11 -4 -6 -20 -7
-38 -3 -47 10 -50 14 -29 38 11 11 29 39 40 62 16 32 31 45 66 58 49 19 76 44
37 33 l-22 -5 20 34 c24 41 14 44 -20 8 -13 -15 -62 -60 -109 -101 -46 -41
-94 -89 -107 -107 l-22 -33 25 -12 c24 -10 27 -9 37 19 15 40 23 38 35 -12 9
-34 8 -49 -3 -72 -8 -16 -15 -42 -15 -58 0 -32 -16 -68 -30 -68 -5 0 -20 4
-34 9 -23 9 -24 12 -13 40 8 22 8 40 -2 72 l-13 43 -12 -34 c-7 -19 -31 -63
-54 -98 -23 -35 -42 -69 -42 -76 0 -8 -7 -19 -15 -26 -8 -7 -15 -19 -15 -26 0
-12 4 -12 24 1 21 14 24 14 30 0 3 -9 6 -30 6 -46 0 -32 -15 -37 -46 -14 -10
8 -22 15 -25 15 -20 1 -66 -151 -113 -375 -31 -145 -66 -265 -77 -265 -13 0
-12 12 21 170 17 80 40 196 50 258 23 130 83 295 137 375 33 48 123 205 123
213 0 2 -7 4 -15 4 -32 0 -13 20 25 26 38 6 39 8 25 24 -22 24 -19 30 16 30
25 0 45 14 100 67 38 36 69 72 69 80 0 9 -16 13 -58 13 -55 0 -60 -2 -102 -45
-24 -24 -45 -43 -47 -41 -2 1 4 22 12 46 15 41 14 45 -3 63 -19 19 -20 18 -26
-17 -6 -33 -29 -56 -56 -56 -7 0 5 30 25 66 20 37 35 68 33 69 -2 2 -16 1 -32
-2 -22 -5 -40 -24 -82 -89 -30 -46 -56 -84 -58 -84 -7 0 10 54 29 91 51 99
203 281 246 294 13 5 26 -1 39 -17 17 -20 19 -21 20 -5 0 23 -53 77 -75 77
-10 0 -30 -11 -47 -25 -37 -31 -59 -33 -31 -3 37 42 37 51 0 31 -19 -10 -173
-161 -343 -335 -169 -175 -311 -318 -315 -318 -4 0 -5 15 -2 33 4 28 0 40 -26
69 -21 24 -36 58 -47 104 -10 38 -18 75 -20 82 -2 6 -13 12 -24 12 -11 0 -20
6 -20 13 0 6 -20 25 -45 41 -60 37 -79 74 -70 137 6 46 5 49 -19 59 -14 5 -26
11 -26 13 0 1 9 28 20 59 11 31 22 74 26 96 5 34 3 42 -17 56 -34 24 -49 20
-108 -24 -29 -22 -63 -40 -76 -40 -12 0 -33 -11 -46 -24 -13 -13 -42 -31 -64
-40 -25 -11 -76 -54 -135 -114 -93 -96 -97 -99 -200 -139 -136 -53 -214 -68
-285 -53 -73 15 -131 58 -146 110 -18 58 -2 70 105 81 48 5 97 14 109 20 41
22 162 120 162 132 0 14 -188 16 -272 3 -87 -14 -92 -5 -34 63 l52 59 -22 16
-22 15 24 9 c13 5 52 21 86 36 67 28 93 32 93 16 0 -13 124 -70 151 -70 32 0
33 26 4 108 -37 105 -111 235 -92 161 5 -20 3 -21 -31 -15 -20 4 -62 10 -92
13 -47 4 -58 2 -74 -15 -18 -21 -18 -21 15 -35 19 -8 40 -21 48 -30 11 -15 10
-18 -11 -26 -41 -15 -222 -41 -290 -41 -47 0 -69 4 -78 15 -17 20 -11 25 72
56 l70 25 -33 28 c-27 23 -40 27 -76 24 -25 -2 -43 1 -43 7 0 5 45 46 100 90
60 49 99 87 100 99 0 15 -8 11 -41 -19 -30 -27 -47 -35 -63 -31 -51 14 -154
17 -196 6 -87 -24 -133 -24 -163 0 -33 26 -36 71 -8 150 23 64 41 186 41 270
0 52 4 64 31 94 35 40 86 59 127 46 15 -4 80 -33 145 -64 64 -31 130 -56 146
-56 21 0 48 -18 106 -69 l78 -70 72 49 c80 54 99 84 99 159 1 43 -1 46 -34 57
-21 7 -38 21 -45 37 -6 14 -18 34 -28 45 -18 20 -18 21 6 37 15 9 64 20 117
25 97 11 124 20 134 46 12 31 -13 49 -115 84 -57 19 -104 40 -106 46 -2 7 26
14 74 20 l78 9 -45 27 c-64 38 -115 48 -288 57 -83 4 -156 11 -161 17 -16 18
10 73 57 121 37 38 66 55 137 82 50 19 147 58 216 87 69 30 129 54 132 54 11
0 34 -53 46 -110 22 -99 31 -119 64 -139 18 -11 44 -31 59 -45 23 -22 28 -23
39 -10 10 13 16 11 41 -12 15 -15 28 -22 28 -16 0 18 18 14 40 -8 11 -11 17
-26 14 -35 -6 -14 -9 -14 -26 2 -20 17 -20 17 -17 -2 3 -16 13 -21 47 -23 37
-3 42 -6 42 -28 0 -48 38 -101 112 -157 40 -30 83 -57 94 -61 32 -10 74 10 74
34 0 32 43 26 74 -11 14 -17 26 -34 26 -38 0 -4 17 -17 39 -29 121 -68 224 34
161 158 -24 46 -61 74 -88 66 -11 -4 -27 -4 -36 0 -13 5 -4 23 50 103 37 53
70 100 74 104 12 14 48 -93 65 -195 28 -168 24 -160 52 -97 l24 54 -6 -65 c-8
-97 -41 -204 -91 -299 -24 -46 -44 -91 -44 -101 0 -9 14 -44 30 -76 20 -40 33
-85 40 -139 13 -100 54 -237 77 -257 19 -16 103 -31 103 -18 0 4 -7 13 -15 20
-14 12 -14 15 0 30 14 16 13 19 -10 34 -35 23 -31 36 13 36 44 0 76 20 97 60
20 39 19 57 -5 87 -27 34 -27 115 0 165 18 34 18 40 5 72 -9 21 -11 36 -5 36
21 0 9 30 -30 75 -23 27 -40 57 -40 71 0 28 3 29 36 8 13 -9 26 -15 28 -13 3
2 -2 29 -10 59 -8 30 -11 69 -8 87 6 30 4 33 -20 33 -32 0 -34 16 -3 24 15 3
30 20 40 43 9 21 25 49 37 63 26 32 42 120 38 214 l-3 75 -68 -55 c-37 -30
-71 -53 -76 -50 -5 3 -17 37 -26 76 -15 60 -15 79 -5 133 12 61 12 64 -19 134
-21 48 -31 87 -31 121 0 39 -4 51 -19 58 -24 11 -135 147 -156 190 -8 18 -15
50 -15 71 0 47 -40 91 -111 121 -25 11 -60 37 -77 58 -62 74 -32 85 60 23 45
-31 80 -45 129 -55 44 -8 102 -31 171 -68 56 -30 138 -66 182 -80 43 -14 94
-37 113 -52 79 -60 155 -53 216 21 55 66 202 133 214 99 2 -7 -18 -25 -46 -42
-56 -35 -73 -68 -45 -89 10 -7 26 -13 35 -13 10 0 21 -4 24 -10 11 -17 66 -11
97 11 38 28 77 27 136 -3 37 -18 48 -29 50 -50 2 -17 15 -36 33 -48 l29 -21 0
340 0 341 -2695 0 -2695 0 0 -290z m2095 141 c3 -5 21 -15 41 -21 32 -11 39
-10 65 9 15 11 38 21 51 21 24 0 77 -35 68 -44 -5 -5 -161 -42 -223 -53 -15
-3 -34 0 -42 7 -15 12 -21 71 -8 83 9 10 41 8 48 -2z m971 -363 l-6 -33 25 28
25 28 0 -50 0 -49 40 -7 c41 -7 70 -34 70 -67 0 -21 -25 -23 -66 -8 -39 15
-40 6 -5 -38 17 -22 31 -42 31 -45 0 -3 -31 -11 -70 -18 -38 -7 -70 -15 -70
-18 0 -3 12 -15 27 -27 l27 -22 -57 -12 c-31 -7 -57 -16 -57 -19 0 -3 25 -19
55 -36 30 -16 55 -32 55 -36 0 -19 -94 -88 -128 -93 -30 -5 -146 15 -159 27
-4 5 17 142 27 173 6 17 22 42 35 54 22 20 25 21 25 6 0 -11 6 -16 18 -14 14
3 16 12 14 48 -1 25 2 52 8 60 9 13 12 13 24 -3 12 -15 13 -9 9 48 -6 63 -5
65 18 65 17 0 20 3 11 9 -23 14 -9 45 28 63 48 25 53 23 46 -14z m-1592 -1004
c23 -9 20 -19 -9 -32 -19 -9 -25 -19 -25 -42 0 -30 1 -31 22 -16 12 9 29 16
37 16 19 0 51 -29 51 -47 0 -19 -86 -139 -104 -146 -25 -10 -44 16 -60 79 -27
104 -19 133 44 177 28 20 24 19 44 11z m1644 -1873 c42 -55 40 -87 -6 -114
l-33 -20 -46 44 c-24 24 -53 56 -64 70 l-19 27 53 20 c28 11 59 19 67 18 8 0
29 -21 48 -45z m-2063 -407 c21 -9 45 -56 45 -92 0 -16 -9 -40 -19 -54 -11
-14 -23 -49 -27 -79 -8 -61 -46 -109 -87 -109 -13 0 -36 -9 -51 -21 -30 -24
-50 -15 -60 26 l-6 23 -29 -29 c-36 -36 -88 -37 -129 -4 -1 1 8 23 22 49 l24
46 -44 97 c-47 105 -51 122 -32 141 13 13 361 18 393 6z m-655 -93 c8 -15 2
-37 -24 -101 l-35 -81 19 -42 19 -42 -37 -8 c-41 -10 -210 -2 -256 11 -43 12
-43 28 0 39 38 8 47 18 63 65 9 23 105 109 180 160 34 23 58 23 71 -1z m3000
-374 c0 -2 -22 -68 -50 -146 -27 -78 -62 -183 -76 -234 -26 -93 -49 -127 -85
-127 -17 0 -16 6 12 87 27 75 82 207 158 376 12 26 26 47 31 47 6 0 10 -2 10
-3z m244 -189 c-83 -128 -102 -164 -89 -168 12 -4 8 -13 -21 -40 -31 -30 -35
-32 -29 -12 7 25 0 27 -35 7 -19 -11 -21 -14 -7 -15 9 0 17 -4 17 -8 0 -8
-141 -34 -147 -28 -3 3 407 426 413 426 2 0 -44 -73 -102 -162z"/>
<path d="M3945 3303 c8 -87 19 -116 42 -111 8 2 44 45 80 96 l65 92 -97 0 -97
0 7 -77z"/>
<path d="M2858 3332 c-9 -9 -25 -36 -37 -59 -12 -24 -32 -50 -46 -59 -34 -23
-32 -35 18 -81 79 -73 130 -96 221 -100 44 -3 92 -9 106 -14 19 -7 40 -4 85
12 73 26 159 36 169 20 14 -22 26 -11 26 24 0 35 0 35 -44 35 -25 0 -80 13
-123 28 -43 16 -86 27 -96 24 -10 -2 -30 5 -45 15 -15 10 -43 23 -62 28 -28 8
-40 20 -59 58 -21 43 -26 47 -58 47 -27 0 -34 3 -30 15 9 22 -8 27 -25 7z"/>
<path d="M5210 1982 c-35 -29 -12 -56 90 -107 l90 -45 0 73 0 73 -70 12 c-89
15 -84 15 -110 -6z"/>
</g>
</svg>
